<svg height="512" viewBox="0 0 60 58" width="512" xmlns="http://www.w3.org/2000/svg"><g id="012---Euro-Up" transform="translate(0 -1)"><path id="Shape" d="m51 32h5l-8-9-8 9h5v7c-.5061102 7.4491433-6.4087022 13.394726-13.8539766 13.9548799-7.4452745.5601539-14.1710297-4.4353203-15.7860234-11.7248799-.0705875-.2986425-.0001475-.6131597.1910772-.8531662.1912246-.2400064.4820587-.3789251.7889228-.3768338h11.66c.5522847 0 1-.4477153 1-1v-4c0-.5522847-.4477153-1-1-1h-12c-.5522847 0-1-.4477153-1-1v-6c0-.5522847.4477153-1 1-1h12c.5522847 0 1-.4477153 1-1v-4c0-.5522847-.4477153-1-1-1h-11.66c-.3068641.0020913-.5976982-.1368274-.7889228-.3768338-.1912247-.2400065-.2616647-.5545237-.1910772-.8531662 1.3631547-6.2300716 6.5236494-10.91251403 12.8564984-11.66551209 6.332849-.75299807 12.4474536 2.58879532 15.2335016 8.32551209.1694205.3436974.5168655.5637459.9.57h4.35c.3309034.0023353.6415348-.1591773.8296848-.4313944.18815-.272217.2294516-.619884.1103152-.9286056-3.36259-9.0034415-12.41267-14.5709682-21.9651102-13.51273546-9.5524401 1.05823274-17.1644772 8.47161217-18.4748898 17.99273546-.06057605.501169-.48518533.8785995-.99.88h-3.21c-.55228475 0-1 .4477153-1 1v4c0 .5522847.44771525 1 1 1h3c.55228475 0 1 .4477153 1 1v6c0 .5522847-.44771525 1-1 1h-3c-.55228475 0-1 .4477153-1 1v4c0 .5522847.44771525 1 1 1h3.21c.50481467.0014005.92942395.378831.99.88 1.4921306 10.7452213 10.9190025 18.5881126 21.7563755 18.10069 10.837373-.4874225 19.522123-9.1449034 20.0436245-19.98069z"/><path id="Shape" d="m55 42c.5522847 0 1-.4477153 1-1v-5c0-.5522847-.4477153-1-1-1s-1 .4477153-1 1v5c0 .5522847.4477153 1 1 1z"/><path id="Shape" d="m54 46c0 .5522847.4477153 1 1 1s1-.4477153 1-1v-1c0-.5522847-.4477153-1-1-1s-1 .4477153-1 1z"/><path id="Shape" d="m42 35c0-.5522847-.4477153-1-1-1s-1 .4477153-1 1v1c0 .5522847.4477153 1 1 1s1-.4477153 1-1z"/><path id="Shape" d="m41.02 41.006c-.5522847 0-1-.4477153-1-1s.4477153-1 1-1 1 .4477153 1 1-.4477153 1-1 1z"/><path id="Shape" d="m55 52c0 .5522847.4477153 1 1 1h3c.5522847 0 1-.4477153 1-1s-.4477153-1-1-1h-3c-.5522847 0-1 .4477153-1 1z"/><path id="Shape" d="m50 51c-.5522847 0-1 .4477153-1 1s.4477153 1 1 1h2c.5522847 0 1-.4477153 1-1s-.4477153-1-1-1z"/><path id="Shape" d="m59 56h-12c-.5522847 0-1 .4477153-1 1s.4477153 1 1 1h12c.5522847 0 1-.4477153 1-1s-.4477153-1-1-1z"/><path id="Shape" d="m1 53h3c.55228475 0 1-.4477153 1-1s-.44771525-1-1-1h-3c-.55228475 0-1 .4477153-1 1s.44771525 1 1 1z"/><path id="Shape" d="m10 53c.5522847 0 1-.4477153 1-1s-.4477153-1-1-1h-2c-.55228475 0-1 .4477153-1 1s.44771525 1 1 1z"/><path id="Shape" d="m13 56h-12c-.55228475 0-1 .4477153-1 1s.44771525 1 1 1h12c.5522847 0 1-.4477153 1-1s-.4477153-1-1-1z"/></g></svg>