<svg height="512" viewBox="0 0 56 56" width="512" xmlns="http://www.w3.org/2000/svg"><g id="002---Global-Language"><path id="Shape" d="m7.17 49.09c3.1766068 3.1362282 7.1668076 5.321833 11.52 6.31-2.2723784-2.6403262-3.9077765-5.7674264-4.78-9.14-2.3779918.5936422-4.65101845 1.5480436-6.74 2.83z"/><path id="Shape" d="m13.42 19.68c-2.7061602-.6719639-5.28373145-1.7833938-7.63-3.29-3.50500562 4.0840454-5.52766922 9.2323233-5.74 14.61h11.95c.0567162-3.813994.5329148-7.6101689 1.42-11.32z"/><path id="Shape" d="m12 33h-12c.22400304 5.3842724 2.26485367 10.5339836 5.79 14.61 2.33820878-1.4991628 4.9052229-2.607032 7.6-3.28-.8760378-3.7145129-1.3421563-7.5138816-1.39-11.33z"/><path id="Shape" d="m20 18.8v-8.67c-1.9417888 2.3597342-3.3475613 5.1132742-4.12 8.07 1.3612676.2755381 2.7366868.4758418 4.12.6z"/><path id="Shape" d="m26.55 33.83c-.3063872.2017791-.6986641.2195909-1.0220769.0464086-.3234127-.1731823-.5260316-.5095512-.5279231-.8764086h-11c.0525585 3.6649997.5052425 7.3132971 1.35 10.88 5.7006589-1.1692816 11.5793411-1.1692816 17.28 0 .8514938-3.5659585 1.3108855-7.2142658 1.37-10.88h-6.2z"/><path id="Shape" d="m24 26c-2.209139 0-4-1.790861-4-4v-1.19c-1.5586797-.1353391-3.1080311-.3623992-4.64-.68-.8470899 3.5631289-1.3031184 7.2080042-1.36 10.87h11v-4c0-.5522847-.4477153-1-1-1z"/><path id="Shape" d="m30.8 31h3.2c0-.7 0-1.39-.07-2.07z"/><path id="Shape" d="m18.69 8.61c-4.3496633.9840571-8.3368616 3.1664506-11.51 6.3 2.08980812 1.2873154 4.3669803 2.2420409 6.75 2.83.8599817-3.3702142 2.4892668-6.4952926 4.76-9.13z"/><path id="Shape" d="m47.22 26h-8.92l-2.47 1.65c.08 1.09.13 2.21.15 3.35h12.02c-.0785677-1.6899548-.3400953-3.3664138-.78-5z"/><path id="Shape" d="m31.5 5c-1.9329966 0-3.5 1.56700338-3.5 3.5v.5h7v-.5c0-1.93299662-1.5670034-3.5-3.5-3.5z"/><path id="Shape" d="m54 0h-30c-1.1045695 0-2 .8954305-2 2v20c0 1.1045695.8954305 2 2 2 1.6568542 0 3 1.3431458 3 3v4.13c11.41-7.6 10.57-7.13 11-7.13h16c1.1045695 0 2-.8954305 2-2v-20c0-1.1045695-.8954305-2-2-2zm-17 15c0 .5522847-.4477153 1-1 1s-1-.4477153-1-1v-4h-7v4c0 .5522847-.4477153 1-1 1s-1-.4477153-1-1v-6.5c0-3.03756612 2.4624339-5.5 5.5-5.5s5.5 2.46243388 5.5 5.5zm15-3h-1c.0940598 2.4221346-.6948544 4.7959846-2.22 6.68.7179894.2252996 1.4676102.333353 2.22.32.5522847 0 1 .4477153 1 1s-.4477153 1-1 1c-1.3876312.0277827-2.7609567-.2846489-4-.91-1.2384858.6268981-2.6122021.9394185-4 .91-.5522847 0-1-.4477153-1-1s.4477153-1 1-1c.7391372.0003903 1.4740937-.1108645 2.18-.33-.8609356-.9785253-1.4777825-2.1471074-1.8-3.41-.0794714-.261357-.0485638-.5438483.0855414-.7818378.1341051-.2379895.3597327-.4107576.6244586-.4781622.5297792-.1404156 1.0738709.1717681 1.22.7.2634917 1.124265.8511008 2.1464964 1.69 2.94.12-.11.25-.2.36-.32 1.1457934-1.5301386 1.7253985-3.4103211 1.64-5.32h-7c-.5522847 0-1-.4477153-1-1s.4477153-1 1-1h4v-2c0-.55228475.4477153-1 1-1s1 .44771525 1 1v2h4c.5522847 0 1 .4477153 1 1s-.4477153 1-1 1z"/><path id="Shape" d="m15.88 45.81c4.07 13.56 12.17 13.58 16.24 0-5.3594523-1.0801406-10.8805477-1.0801406-16.24 0z"/><path id="Shape" d="m34.61 44.33c2.6947771.672968 5.2617912 1.7808372 7.6 3.28 3.5251463-4.0760164 5.565997-9.2257276 5.79-14.61h-12c-.0478437 3.8161184-.5139622 7.6154871-1.39 11.33z"/><path id="Shape" d="m29.31 55.4c4.3531924-.988167 8.3433932-3.1737718 11.52-6.31-2.0889816-1.2819564-4.3620082-2.2363578-6.74-2.83-.8722235 3.3725736-2.5076216 6.4996738-4.78 9.14z"/></g></svg>