<svg height="512" viewBox="0 0 60 60" width="512" xmlns="http://www.w3.org/2000/svg"><g id="017---Travel" fill="none"><g id="Icons" transform="translate(1 1)"><g fill="#02a9f4"><path id="Shape" d="m10.96 21.96-5.01.38c1.44967831-5.0462672 4.5213018-9.4744657 8.74-12.6l3.69 3.69-4.81 4.82c-.154.15.03-.092-2.61 3.71z"/><path id="Shape" d="m24.041 7.779-2.981-1.429c1.8251384-.64423301 3.7228198-1.06071529 5.65-1.24z"/><path id="Shape" d="m53 29c.0042673 8.9170504-4.9356276 17.1013542-12.8275595 21.2524043s-17.4346952 3.5844298-24.7799531-1.4713583c-7.34525788-5.0557881-11.28193915-13.767156-10.2224874-22.621046l2.41.654-.6.868c-.29859023.3981203-.25899874.9552148.09289322 1.3071068.35189195.3518919.90898648.3914834 1.30710678.0928932l.87-.6 1.61 5.918c.0944664.3432275.3642771.6103563.7084311.7013893.3441541.0910329.7107549-.0077572.9625689-.2593893.643-.649.91-.826.929-1.272l.648-8.472 3.562-2.478c.485-.485-1.674 1.694 4.96-4.94 5.339 5.339 2.81 2.571 11.389 12.58.2486052.2905519.6411395.4138914 1.0112494.3177479.37011-.0961435.6529874-.3949348.7287506-.7697479l.241-1.198c.09-.475.627.843-7.718-16.59 5.208-5.195 3.882-3.68 5.868-6.46 11.0053918 2.42176037 18.8457868 12.1713021 18.85 23.44z"/></g><path id="Shape" d="m53 29c-.00085 6.6251319-2.7403011 12.9552227-7.5694453 17.4908307s-11.3183751 6.8732401-17.9305547 6.4591693c11.4527386-.7135689 20.7969916-9.4365974 22.2955259-20.8132751 1.4985344-11.3766778-5.268199-22.22184306-16.1455259-25.8767249l.5-.7c11.0053918 2.42176037 18.8457868 12.1713021 18.85 23.44z" fill="#0377bc"/><path id="Shape" d="m43.7 47.96c-10.2804916 7.9818357-25.0514711 6.3041223-33.28-3.78 1.65.15 4.23.15 4.94-1.18 1.06-2 2.12-5 7.43-3s6.36 5 10.6 6c3.7.87 9 1.75 10.31 1.96z" fill="#60a917"/><path id="Shape" d="m47.75 43.97c-.8971162-.0902521-1.7885005-.2304699-2.67-.42-9.84-2.15-5.79-9.26-2.69-10.24 3.36-1.07 0-6.41-1.13-8.55s0-4.28 3.37-6.42c1.5640158-.9468004 2.7056519-2.4570526 3.19-4.22 6.9357335 8.7505103 6.9066979 21.1321152-.07 29.85z" fill="#549414"/><path id="Shape" d="m45.08 43.55c-9.84-2.15-5.79-9.26-2.69-10.24 3.36-1.07 0-6.41-1.13-8.55s0-4.28 3.37-6.42c.7313544-.4621707 1.3831098-1.0396328 1.93-1.71 5.0809309 8.4260074 4.494002 19.1017675-1.48 26.92z" fill="#60a917"/><path id="Shape" d="m24.041 7.779c-17.441-8.343-16.122-7.807-16.59-7.714l-1.194.235c-.37749622.07315993-.67960761.3562885-.77707693.7282502s.02696995.76686414.32007693 1.0157498c10.336 8.859 5.59 4.4 21.068 19.876l7.149 8.34c.2486052.2905519.6411395.4138914 1.0112494.3177479.37011-.0961435.6529874-.3949348.7287506-.7697479.258-1.291.341-1.446.16-1.824l-7.635-15.964z" fill="#9e9e9e"/><path id="Shape" d="m10.974 21.949c-9.115.692-8.742.568-9.115.94l-.64.641c-.2510855.2521318-.34927881.6186944-.25785129.9625772.09142753.3438828.35870213.6132791.70185129.7074228l5.917 1.614 1.669 1.667 1.611 5.919c.0944664.3432275.3642771.6103563.7084311.7013893.3441541.0910329.7107549-.0077572.9625689-.2593893l.642-.639c.368-.368.242.027.935-9.105z" fill="#9e9e9e"/><path id="Shape" d="m29.03 34.9c.08 1.03-1.12.87-1.77.64-.8-.29-1.6-.57-2.4-.86-1.648-.592-2.3-.421-2.82-2.22-.3787573-1.0945135-.5285223-2.2551923-.44-3.41.449-2.811 3.4-3.234 3.4-1.05s1.96 3.52 3.11 5.13c.4504356.5033825.7668336 1.1121047.92 1.77z" fill="#60a917"/><path id="Shape" d="m8.379 29.082c.272-.2 9.124-6.318 9.43-6.586 15.73-15.73 14.782-14.761 14.931-14.97l2.277-3.188c.6694373-.93911563.56244-2.22443761-.2530612-3.03993881-.8155012-.81550119-2.1008232-.92249845-3.0399388-.25306119-3.209 2.292-3.261 2.312-3.44 2.491-10.309 10.309-14.649 14.639-14.84 14.858l-6.465 9.288c-.29859023.3981203-.25899874.9552148.09289322 1.3071068.35189195.3518919.90898648.3914834 1.30710678.0928932z" fill="#f5f5f5"/></g><g id="Layer_2" fill="#000" transform="translate(0 -1)"><path id="Shape" d="m41.586 5.5c2.641 1.2 2.825 1.676 3.414 1.676.4493203.00091104.8440797-.29797394.9650832-.73069523.1210034-.43272129-.0614633-.8930181-.4460832-1.12530477-1.0006773-.60598323-2.035759-1.15324099-3.1-1.639-.3266117-.15753402-.7129119-.12591367-1.009558.08263671-.2966461.20855039-.4571497.56134818-.4194606.92200272.0376892.36065455.2676646.67264648.6010186.81536057z"/><path id="Shape" d="m49.548 8.242c-.2675606-.25586363-.6545856-.34297324-1.0059683-.22641816-.3513826.11655507-.6096216.41770142-.6712232.78274949-.0616015.36504807.0835149.73426034.3771915.95966867 9.627948 8.2737647 12.4849483 21.9896206 6.9612432 33.4194608-5.5237052 11.4298403-18.0458402 17.713413-30.5108924 15.3102815-12.4650521-2.4031315-21.75371371-12.8915975-22.6323508-25.5557423-.03755537-.5522847-.51571525-.9695553-1.068-.932-.55228474.0375554-.96955535.5157153-.932 1.068.94035272 13.5689035 10.8917611 24.8073709 24.247101 27.3830844 13.3553399 2.5757136 26.7724606-4.1558947 32.6914814-16.401898s2.858717-26.9418605-7.4565824-35.8071864z"/><path id="Shape" d="m.737 27.713 6.239 1.7c-.37612659.763957-.22252743 1.6827586.38162976 2.2828382.60415719.6000797 1.52397788.7474532 2.28537024.3661618l1.706 6.263c.09351.3441288.363202.6124206.7078128.7041382s.711987-.0070196.9641872-.2591382c2.292-2.293 2.375-2.266 2.411-2.753l.635-8.369c3.569-2.484 3.158-2.188 3.361-2.364.182-.171-.87.877 4.2-4.192 4.644 4.639 1.788 1.5 11.969 13.379.249128.2899894.6417922.412561 1.0116489.31579s.6521728-.3959476.7273511-.77079l.707-3.536c.095-.471.6.781-7.551-16.252 4.929-4.928 3.288-3.038 6.339-7.308.9539283-1.3367001.8022518-3.16701582-.3586952-4.32845821s-2.9911979-1.31389975-4.3283048-.36054179c-4.273 3.052-2.4 1.429-7.308 6.34-17.036-8.147-15.784-7.644-16.254-7.551l-3.536.707c-.37467816.0754676-.67357007.35790092-.77011571.72770901-.09654565.36980809.02614297.76230326.31611571 1.01129099 11.811 10.119 8.665 7.255 13.38 11.97-4.715 4.716-4.217 4.2-4.35 4.386l-2.207 3.178-8.37.635c-.488.037-.442.1-2.752 2.412-.24900855.2522676-.34586516.6175044-.2545844.9600129.09128076.3425084.35705714.6111012.6985844.7059871zm12.729 7.787-.641.64-1.425-5.24 2.552-1.776zm22.551-5.081-.24 1.2c-8.64-10.076-6.283-7.48-10.735-11.932l3.95-3.95zm-28.564-27.134 1.194-.239 14.689 7.025-3.951 3.951c-4.522-4.522-1.921-2.157-11.932-10.737zm7.786 17.715c15.638-15.644 14.777-14.792 14.878-14.864l3.189-2.278c.5417878-.38711691 1.2840492-.32574284 1.754896.145104.4708468.47084685.5322209 1.21310821.145104 1.754896l-2.278 3.185c-.078.108.8-.775-14.821 14.838-10.421 7.264-9.2 6.473-9.3 6.473-.107.046.385-.562 6.432-9.254zm-11.673 4.6 6.376-.485-1.776 2.549-5.24-1.427z"/><path id="Shape" d="m15.693 44.113-.214.416c-.243.454-1.447.821-3.574.681-2.37455439-3.0195045-3.95189636-6.5875228-4.587-10.376-.09914132-.5370706-.61084083-.895264-1.14940609-.8045928s-.90477256.5966664-.82259391 1.1365928c3.154 18.795 25.235 27.075 40.006 15.543.0250316-.0173012.0490696-.0359974.072-.056 6.6979406-5.250851 10.2630543-13.5495374 9.4608405-22.022453-.8022139-8.4729156-5.8614522-15.9550502-13.4258405-19.855547-.490705-.2534987-1.0940013-.061205-1.3475.4295s-.061205 1.0940013.4295 1.3475c2.7540077 1.4211387 5.1932621 3.3828815 7.172 5.768-.4827468 1.328831-1.4073475 2.4514847-2.619 3.18-4.818 3.059-4.682 5.891-3.719 7.731.725 1.375 2.972 5.1 2.377 6.593-.119083.2774735-.3676509.4781247-.664.536-2.6294659 1.0493087-4.3089176 3.6454812-4.188 6.474.179 1.768 1.493 4.734 7.891 5.865-.7371281.7875929-1.5283885 1.5227165-2.368 2.2-1.481-.243-6.347-1.062-9.8-1.874-3.857-.91-5.115-3.94-10.476-5.963-5.78-2.172-7.454 1.097-8.454 3.051zm25.193-3.48c-.0272671-1.8883193 1.0783489-3.6095668 2.807-4.37.8678772-.2386227 1.5757584-.866701 1.916-1.7.967-2.418-1.3-6.059-2.463-8.266-.311-.593-1.255-2.4 3.02-5.112 1.2097383-.7524802 2.2077995-1.8007886 2.9-3.046 5.510786 8.1645893 5.2026321 18.9338842-.766 26.77-4.561-.57-7.192-2.078-7.414-4.276zm-17.449 2.3c5.11 1.929 6.207 4.971 10.724 6.038 2.52.592 5.764 1.186 7.953 1.566-9.1070327 5.6498585-20.9078179 4.2702122-28.466-3.328 1.834-.132 3.045-.71 3.6-1.744l.23-.444c.995-1.947 1.859-3.631 5.959-2.085z"/><path id="Shape" d="m22.077 34.724c.487 1.761 1.279 2.262 2.916 2.733.555.16.253.064 2.925 1.024 2.031.726 3.22-.314 3.1-1.665-.106-1.234-1.415-2.717-2.251-3.649-.947-1.058-1.767-1.967-1.767-3.167 0-3.324-4.69-3.264-5.392.88-.1257094 1.3002013.0343612 2.6121658.469 3.844zm1.5-3.512c.223-1.334 1.134-1.7 1.3-1.591.0939763.1025448.1388495.2408125.123.379 0 3.095 3.023 4.7 3.936 6.688-.345-.059-2.462-.885-3.39-1.153-1.125-.324-1.279-.41-1.543-1.348-.3253026-.9565914-.4684401-1.9656773-.422-2.975z"/></g></g></svg>