<svg height="480pt" viewBox="0 0 480.24653 480" width="480pt" xmlns="http://www.w3.org/2000/svg"><path d="m264 72.011719c0 35.347656-28.652344 64-64 64s-64-28.652344-64-64c0-35.347657 28.652344-64 64-64s64 28.652343 64 64zm0 0" fill="#9bc9ff"/><path d="m472 120.011719c0 35.347656-28.652344 64-64 64s-64-28.652344-64-64c0-35.347657 28.652344-64 64-64s64 28.652343 64 64zm0 0" fill="#9bc9ff"/><path d="m384 200.011719c0 53.019531-42.980469 96-96 96s-96-42.980469-96-96 42.980469-96 96-96 96 42.980469 96 96zm0 0" fill="#9bc9ff"/><path d="m0 296.011719h88v176h-88zm0 0" fill="#9bc9ff"/><g fill="#1e81ce"><path d="m454.785156 312.347656c-10.929687-19.023437-35.152344-25.679687-54.265625-14.90625l-94.480469 48.167969c-5.210937-6-12.101562-10.300781-19.78125-12.351563l-98.90625-26.488281c-7.566406-2.039062-15.566406-1.796875-23 .691407l-33.953124 11.316406c-2.449219.816406-5.015626 1.234375-7.597657 1.234375h-26.800781v-32h-96v16h80v160h-80v16h96v-24h12.0625c1.960938 0 3.914062.242187 5.816406.71875l56.351563 14.082031c3.175781.796875 6.433593 1.199219 9.707031 1.199219h67.496094c7.019531 0 13.917968-1.84375 20-5.351563l172.734375-99.722656c12.347656-7.15625 19.964843-20.335938 20-34.605469.007812-7.019531-1.851563-13.917969-5.382813-19.984375zm-22.625 40.734375-172.734375 99.730469c-3.652343 2.097656-7.789062 3.199219-12 3.199219h-67.488281c-1.960938 0-3.914062-.242188-5.816406-.71875l-56.351563-14.082031c-3.175781-.796876-6.433593-1.203126-9.707031-1.199219h-12.0625v-104h26.808594c4.300781 0 8.574218-.691407 12.65625-2.046875l33.949218-11.320313c4.457032-1.496093 9.257813-1.640625 13.792969-.417969l98.914063 26.496094c12.8125 3.433594 20.414062 16.605469 16.984375 29.417969-3.433594 12.8125-16.605469 20.414063-29.417969 16.984375l-67.589844-18.113281-4.144531 15.457031 67.589844 18.109375c14.164062 3.792969 29.265625-.46875 39.359375-11.101563 10.089844-10.632812 13.558594-25.9375 9.035156-39.882812l94.214844-48.054688c11.488281-6.628906 26.171875-2.6875 32.800781 8.800782 6.625 11.488281 2.6875 26.171875-8.800781 32.800781zm0 0"/><path d="m408 48.011719c-35.21875.066406-65.230469 25.578125-70.96875 60.328125-21.433594-11.492188-46.21875-15.097656-70.039062-10.191406 11.4375-29.40625 2.382812-62.832032-22.335938-82.441407-24.714844-19.609375-59.324219-20.828125-85.355469-3.003906-26.035156 17.824219-37.417969 50.527344-28.078125 80.664063 9.339844 30.136718 37.226563 50.667968 68.777344 50.644531h.527344c-23.902344 37.296875-21.542969 85.648437 5.882812 120.441406 27.421875 34.792969 73.886719 48.382813 115.734375 33.851563 41.851563-14.53125 69.894531-53.992188 69.855469-98.292969 0-3.367188-.191406-6.6875-.503906-9.976563 27.015625 6.460938 55.335937-3.191406 72.78125-24.808594 17.445312-21.617187 20.898437-51.339843 8.875-76.378906-12.019532-25.039062-37.375-40.929687-65.152344-40.835937zm-264 24c-.101562-24.429688 15.644531-46.105469 38.910156-53.5625 23.261719-7.453125 48.675782 1.03125 62.792969 20.96875s13.679687 46.726562-1.078125 66.191406c-10.875 5-20.804688 11.832031-29.359375 20.203125-4.964844 1.421875-10.101563 2.160156-15.265625 2.199219-30.914062-.035157-55.964844-25.085938-56-56zm144 216c-48.601562 0-88-39.398438-88-88 0-48.601563 39.398438-88 88-88s88 39.398437 88 88c-.058594 48.578125-39.421875 87.941406-88 88zm120-112c-6.796875-.019531-13.535156-1.289063-19.871094-3.746094-5.941406-21.371094-18.554687-40.289063-36-53.992187.953125-30.699219 26.453125-54.902344 57.164063-54.25 30.707031.652343 55.160156 25.921874 54.804687 56.632812-.355468 30.714844-25.382812 55.410156-56.097656 55.355469zm0 0"/><path d="m288 160.011719c8.835938 0 16 7.164062 16 16h16c-.054688-14.546875-9.914062-27.226563-24-30.863281v-17.136719h-16v17.136719c-15.585938 4.011718-25.753906 18.992187-23.71875 34.957031 2.03125 15.96875 15.625 27.925781 31.71875 27.90625 8.835938 0 16 7.164062 16 16 0 8.835937-7.164062 16-16 16s-16-7.164063-16-16h-16c.054688 14.546875 9.914062 27.226562 24 30.863281v17.136719h16v-17.136719c15.585938-4.011719 25.753906-18.992188 23.71875-34.960938-2.03125-15.964843-15.625-27.921874-31.71875-27.902343-8.835938 0-16-7.164063-16-16 0-8.835938 7.164062-16 16-16zm0 0"/><path d="m426.34375 74.355469-18.34375 18.34375-18.34375-18.34375-11.3125 11.3125 18.34375 18.34375h-12.6875v16h16v8h-16v16h16v24h16v-24h16v-16h-16v-8h16v-16h-12.6875l18.34375-18.34375zm0 0"/><path d="m223.601562 116.25-7.203124-14.277344c-2.597657 1.332032-5.476563 2.03125-8.398438 2.039063-9.460938-.738281-17.582031-7.023438-20.664062-16h20.664062v-16h-24c.023438-2.6875.3125-5.367188.855469-8h23.144531v-16h-15.703125c3.792969-4.859375 9.542969-7.789063 15.703125-8 2.898438.007812 5.753906.699219 8.335938 2.015625l7.199218-14.296875c-4.8125-2.445313-10.136718-3.71875-15.535156-3.71875-15.195312.65625-28.652344 9.996093-34.585938 24h-13.414062v16h8.601562c-.390624 2.648437-.589843 5.320312-.601562 8h-8v16h10.335938c4.070312 17.835937 19.402343 30.863281 37.664062 32 5.425781-.003907 10.769531-1.292969 15.601562-3.761719zm0 0"/></g></svg>