<svg height="512" viewBox="0 0 60 56" width="512" xmlns="http://www.w3.org/2000/svg"><g id="015--Dollar-Down"><path id="Shape" d="m52 51h7c.5522847 0 1-.4477153 1-1s-.4477153-1-1-1h-7c-.5522847 0-1 .4477153-1 1s.4477153 1 1 1z"/><path id="Shape" d="m45 50c0 .5522847.4477153 1 1 1h2c.5522847 0 1-.4477153 1-1s-.4477153-1-1-1h-2c-.5522847 0-1 .4477153-1 1z"/><path id="Shape" d="m59 54h-16c-.5522847 0-1 .4477153-1 1s.4477153 1 1 1h16c.5522847 0 1-.4477153 1-1s-.4477153-1-1-1z"/><path id="Shape" d="m1 51h7c.55228475 0 1-.4477153 1-1s-.44771525-1-1-1h-7c-.55228475 0-1 .4477153-1 1s.44771525 1 1 1z"/><path id="Shape" d="m12 51h2c.5522847 0 1-.4477153 1-1s-.4477153-1-1-1h-2c-.5522847 0-1 .4477153-1 1s.4477153 1 1 1z"/><path id="Shape" d="m17 54h-16c-.55228475 0-1 .4477153-1 1s.44771525 1 1 1h16c.5522847 0 1-.4477153 1-1s-.4477153-1-1-1z"/><path id="Shape" d="m32 16h-4v-2h4zm-16.44 1c0-6.186 4.885-11.55 11.616-12.756.476686-.08522708.8238111-.49975507.824-.984v-3.26h4v3.27c.000102.4839293.3467115.89834452.823.984 6.314 1.133 11.077 5.961 11.577 11.753h-4.018c-.444-3.494-3.234-6.453-7.11-7.549-.3014308-.08520153-.6253692-.02423715-.8752056.16471149-.2498365.18894863-.3967013.48404766-.3967944.79728851v2.58h-4v-2.58c-.0000931-.31324085-.1469579-.60833988-.3967944-.79728851-.2498364-.18894864-.5737748-.24991302-.8752056-.16471149-4.288 1.215-7.168 4.647-7.168 8.542.1462486 3.4566985 2.2610524 6.5235529 5.44 7.889v4.275c-5.247-1.564-9.44-6.524-9.44-12.164zm10.44 19c.5522847 0 1-.4477153 1-1v-17h6v17c0 .5522847.4477153 1 1 1h2.348l-6.568 7.483-6.571-7.483zm6.824 15.756c-.476686.0852271-.8238111.4997551-.824.984v3.26h-4v-3.27c-.000102-.4839293-.3467115-.8983445-.823-.984-6.314-1.133-11.077-5.961-11.577-11.753h4.018c.444 3.494 3.234 6.453 7.11 7.549.3014308.0852015.6253692.0242372.8752056-.1647115.2498365-.1889486.3967013-.4840476.3967944-.7972885v-2.092l1.028 1.171c.189833.2152504.4629994.3385622.75.3385622s.560167-.1233118.75-.3385622l1.472-1.672v2.593c.0000931.3132409.1469579.6083399.3967944.7972885.2498364.1889487.5737748.249913.8752056.1647115 5.651-1.6 8.888-7.144 6.22-12.2.1111628-.2921234.0763135-.6197506-.0938123-.8819537-.1701258-.2622032-.4551198-.4275285-.7671877-.4450463-.9217662-1.2646625-2.1797329-2.2454677-3.631-2.831v-4.263c5.4635782 1.507764 9.2971216 6.412994 9.44 12.079 0 6.186-4.885 11.55-11.616 12.756z"/></g></svg>